HIERARCHY
ROOT Hips
{
	OFFSET 0.00000 0.00000 0.00000
	CHANNELS 6 Xposition Yposition Zposition Zrotation Yrotation Xrotation 
	JOINT LHipJoint
	{
		OFFSET 0 0 0
		CHANNELS 3 Zrotation Yrotation Xrotation
		JOINT LeftHip
		{
			OFFSET 1.65412 -1.54119 0.76744
			CHANNELS 3 Zrotation Yrotation Xrotation
			JOINT LeftKnee
			{
				OFFSET 2.19550 -6.03209 0.00000
				CHANNELS 3 Zrotation Yrotation Xrotation
				JOINT LeftAnkle
				{
					OFFSET 2.38814 -6.56138 0.00000
					CHANNELS 3 Zrotation Yrotation Xrotation
					JOINT LeftToe
					{
						OFFSET 0.17337 -0.47632 1.75875
						CHANNELS 3 Zrotation Yrotation Xrotation
						End Site
						{
							OFFSET 0.00000 -0.00000 0.92050
						}
					}
				}
			}
		}
	}
	JOINT RHipJoint
	{
		OFFSET 0 0 0
		CHANNELS 3 Zrotation Yrotation Xrotation
		JOINT RightHip
		{
			OFFSET -1.40291 -1.54119 0.76744
			CHANNELS 3 Zrotation Yrotation Xrotation
			JOINT RightKnee
			{
				OFFSET -2.22156 -6.10370 0.00000
				CHANNELS 3 Zrotation Yrotation Xrotation
				JOINT RightAnkle
				{
					OFFSET -2.46840 -6.78188 0.00000
					CHANNELS 3 Zrotation Yrotation Xrotation
					JOINT RightToe
					{
						OFFSET -0.15659 -0.43024 1.84117
						CHANNELS 3 Zrotation Yrotation Xrotation
						End Site
						{
							OFFSET -0.00000 -0.00000 0.95587
						}
					}
				}
			}
		}
	}
	JOINT lowerback
	{
		OFFSET 0 0 0
		CHANNELS 3 Zrotation Yrotation Xrotation
		JOINT Chest
		{
			OFFSET -0.01936 1.82120 -0.32061
			CHANNELS 3 Zrotation Yrotation Xrotation
			JOINT Chest2
			{
				OFFSET -0.00532 1.85767 -0.00071
				CHANNELS 3 Zrotation Yrotation Xrotation
				JOINT lowerneck
				{
					OFFSET 0 0 0
					CHANNELS 3 Zrotation Yrotation Xrotation
					JOINT Neck
					{
						OFFSET -0.10687 1.58194 0.10810
						CHANNELS 3 Zrotation Yrotation Xrotation
						JOINT Head
						{
							OFFSET 0.15346 1.57382 -0.25612
							CHANNELS 3 Zrotation Yrotation Xrotation
							End Site
							{
								OFFSET 0.05334 1.61251 -0.10513
							}
						}
					}
				}
				JOINT LeftCollar
				{
					OFFSET 0 0 0
					CHANNELS 3 Zrotation Yrotation Xrotation
					JOINT LeftShoulder
					{
						OFFSET 2.85758 0.89498 -0.01485
CHANNELS 3 Zrotation Xrotation Yrotation
						JOINT LeftElbow
						{
OFFSET 0 -4.791850 -0.000000
CHANNELS 3 Zrotation Xrotation Yrotation
							JOINT LeftWrist
							{
OFFSET 0 -2.655530 0.000000
CHANNELS 3 Zrotation Xrotation Yrotation
								JOINT lhand
								{
									OFFSET 0 0 0
CHANNELS 3 Zrotation Xrotation Yrotation
									JOINT LFingers
									{
OFFSET 0 -0.743900 0.000000
CHANNELS 3 Zrotation Xrotation Yrotation
										End Site
										{
OFFSET 0 -0.599750 0.000000
										}
									}
								}
								JOINT LThumb
								{
OFFSET 0 0.000000 0.000000
CHANNELS 3 Zrotation Xrotation Yrotation
									End Site
									{
OFFSET 0 -0.608910 0.608910
									}
								}
							}
						}
					}
				}
				JOINT RightCollar
				{
					OFFSET 0 0 0
					CHANNELS 3 Zrotation Yrotation Xrotation
					JOINT RightShoulder
					{
						OFFSET -2.93906 0.88031 0.02490
CHANNELS 3 Zrotation Xrotation Yrotation
						JOINT RightElbow
						{
OFFSET 0 -4.772540 -0.000000
CHANNELS 3 Zrotation Xrotation Yrotation
							JOINT RightWrist
							{
OFFSET 0 -2.759950 -0.000000
CHANNELS 3 Zrotation Xrotation Yrotation
								JOINT rhand
								{
									OFFSET 0 0 0
CHANNELS 3 Zrotation Xrotation Yrotation
									JOINT RFingers
									{
OFFSET 0 -0.701620 0.000000
CHANNELS 3 Zrotation Xrotation Yrotation
										End Site
										{
OFFSET 0 -0.565660 0.000000
										}
									}
								}
								JOINT RThumb
								{
OFFSET 0 0.000000 0.000000
CHANNELS 3 Zrotation Xrotation Yrotation
									End Site
									{
OFFSET 0 -0.574300 0.574300
									}
								}
							}
						}
					}
				}
			}
		}
	}
}
MOTION
Frames: 12
Frame Time: 0.008333333333333333
0.420600 15.979100 -0.206100 -1.267400 -1.272500 -3.315900 0.000000 0.000000 0.000000 -17.840400 -10.909900 5.769100 0.831500 5.817500 16.255800 0.337600 5.662200 -14.516100 0.639800 -5.117400 -14.243800 0.000000 0.000000 0.000000 19.289900 12.741400 5.217200 -1.060700 -6.548100 18.383100 -0.234600 -9.135100 -16.565800 -0.680100 5.273000 -14.688800 -2.248200 0.997100 13.424700 -0.719900 0.904700 -0.698200 0.318900 0.518200 -8.323000 -16.711900 -12.419100 -9.016600 9.579100 -17.130000 25.490600 3.742800 -8.412800 12.219700 -0.000000 0.000000 0.000000 2.044200 -1.462400 -20.892900 11.301200 -18.748500 1.871600 8.267900 4.401100 -11.103400 0.000000 0.000000 0.000000 -7.125000 0.000000 0.000000 -16.548100 40.626100 -1.842200 -0.000000 0.000000 0.000000 -0.347000 2.107900 27.146000 -14.562700 -23.533300 -3.049200 -11.246900 8.174200 -10.060100 0.000000 0.000000 0.000000 7.125000 0.000000 -0.000000 11.181700 19.821000 6.858300
0.421275 15.978645 -0.206414 -1.108758 -1.258868 -3.315853 0.000000 0.000000 0.000000 -18.038487 -10.917080 5.879875 0.814473 5.758914 16.086547 0.326867 5.756877 -14.445758 0.635516 -5.100472 -14.195290 0.000000 0.000000 0.000000 19.071024 12.641238 5.122891 -1.070272 -6.576606 18.466903 -0.241811 -9.023578 -16.535820 -0.699106 5.344322 -14.893302 -2.363278 0.992096 13.407995 -0.759412 0.876695 -0.703563 0.347678 0.508696 -8.319850 -16.707961 -12.395044 -9.012869 9.509179 -17.075884 25.499979 3.726885 -8.395675 12.206471 0.000000 0.000000 0.000000 2.010329 -1.391038 -20.869592 11.304196 -18.753021 1.872535 8.228916 4.414793 -11.075281 0.000000 0.000000 0.000000 -7.125000 0.000000 0.000000 -16.573577 40.595437 -1.858154 0.000000 0.000000 0.000000 -0.345425 2.129332 27.040599 -14.513158 -23.463532 -3.029438 -11.711811 8.185647 -10.144128 0.000000 0.000000 0.000000 7.125000 0.000000 0.000000 10.850194 19.715582 6.673493
0.419200 15.979149 -0.210602 -1.080560 -1.223684 -3.277074 0.000000 0.000000 0.000000 -18.058692 -10.992794 5.838795 0.812255 5.751228 16.064402 0.326602 5.772712 -14.454955 0.627205 -5.067560 -14.101342 0.000000 0.000000 0.000000 19.022576 12.606576 5.028041 -1.078110 -6.599910 18.535249 -0.244491 -8.991813 -16.536533 -0.711034 5.388979 -15.021405 -2.375527 0.974446 13.402568 -0.768939 0.850268 -0.720924 0.349713 0.496451 -8.335020 -16.711992 -12.359128 -9.121113 9.542803 -17.023803 25.578934 3.744045 -8.364825 12.255119 0.000000 0.000000 0.000000 1.955595 -1.326712 -20.661612 11.318560 -18.774925 1.877193 8.155902 4.599331 -11.292020 0.000000 0.000000 0.000000 -7.125000 0.000000 0.000000 -16.694915 40.798286 -1.786276 0.000000 0.000000 0.000000 -0.379857 2.183922 27.160839 -14.568457 -23.541447 -3.051501 -11.633956 8.095494 -10.006877 0.000000 0.000000 0.000000 7.125000 0.000000 0.000000 10.911089 19.856541 6.677174
0.417306 15.978359 -0.214470 -1.107127 -1.222007 -3.243315 0.000000 0.000000 0.000000 -17.999515 -10.986765 5.710404 0.822883 5.787943 16.170400 0.324000 5.734012 -14.384644 0.624394 -5.056371 -14.069522 0.000000 0.000000 0.000000 19.044295 12.594655 4.933173 -1.077858 -6.599039 18.532780 -0.237308 -9.014591 -16.467438 -0.724438 5.438399 -15.163422 -2.345333 0.974353 13.405095 -0.758828 0.855378 -0.742590 0.342092 0.498193 -8.359671 -16.766557 -12.347683 -9.077074 9.599849 -17.022409 25.593603 3.776458 -8.365148 12.263781 0.000000 0.000000 0.000000 1.883204 -1.302977 -20.417898 11.288629 -18.729310 1.867545 8.062974 4.666038 -11.468477 0.000000 0.000000 0.000000 -7.125000 0.000000 0.000000 -16.822932 40.960216 -1.731383 0.000000 0.000000 0.000000 -0.367570 2.228124 27.088176 -14.564078 -23.535391 -3.049713 -11.650395 8.253589 -9.964200 0.000000 0.000000 0.000000 7.125000 0.000000 0.000000 10.901397 19.898496 6.660623
0.415818 15.978580 -0.218564 -1.187942 -1.261456 -3.254391 0.000000 0.000000 0.000000 -17.896099 -10.980894 5.661316 0.830957 5.815380 16.249773 0.328556 5.716847 -14.434952 0.643320 -5.130996 -14.282578 0.000000 0.000000 0.000000 19.156792 12.660526 4.944764 -1.078532 -6.601076 18.538849 -0.225027 -9.120181 -16.423587 -0.734032 5.473503 -15.264182 -2.251710 0.978832 13.506363 -0.744425 0.873861 -0.776981 0.298759 0.504115 -8.453763 -16.661643 -12.344768 -9.055549 9.472952 -17.002129 25.574531 3.718879 -8.360718 12.223982 0.000000 0.000000 0.000000 1.933938 -1.248149 -20.463926 11.309293 -18.760842 1.874177 7.921349 4.579690 -11.651955 0.000000 0.000000 0.000000 -7.125000 0.000000 0.000000 -16.995312 41.124255 -1.679148 0.000000 0.000000 0.000000 -0.355034 2.211729 26.937395 -14.519699 -23.472734 -3.031996 -11.599422 8.415892 -10.020046 0.000000 0.000000 0.000000 7.125000 0.000000 0.000000 10.934829 19.845036 6.695189
0.413498 15.979625 -0.220278 -1.266401 -1.233952 -3.264118 0.000000 0.000000 0.000000 -17.803326 -11.011289 5.579125 0.848955 5.876518 16.426676 0.336195 5.643135 -14.479664 0.632296 -5.087929 -14.159422 0.000000 0.000000 0.000000 19.251133 12.631028 5.032013 -1.061543 -6.550730 18.390891 -0.221621 -9.115778 -16.373362 -0.712813 5.395401 -15.039795 -2.196551 0.943153 13.469159 -0.702383 0.840723 -0.731621 0.320499 0.485947 -8.382224 -16.691439 -12.307980 -9.043365 9.534068 -16.950487 25.471162 3.756675 -8.334709 12.182031 0.000000 0.000000 0.000000 1.909619 -1.295502 -20.310821 11.317607 -18.773422 1.876828 7.935902 4.725138 -11.687385 0.000000 0.000000 0.000000 -7.125000 0.000000 0.000000 -16.992915 41.159737 -1.663565 0.000000 0.000000 0.000000 -0.384676 2.122211 26.824490 -14.529706 -23.486962 -3.036007 -11.553818 8.452392 -10.080061 0.000000 0.000000 0.000000 7.125000 0.000000 0.000000 10.964444 19.787011 6.728481
0.413600 15.978477 -0.221659 -1.286935 -1.235247 -3.268954 0.000000 0.000000 0.000000 -17.791022 -11.056605 5.607910 0.845846 5.866121 16.396549 0.332941 5.736059 -14.513791 0.647166 -5.146322 -14.326258 0.000000 0.000000 0.000000 19.277421 12.649934 5.021154 -1.064839 -6.560557 18.419747 -0.222673 -9.119586 -16.392214 -0.725417 5.441979 -15.173580 -2.171002 0.924132 13.498275 -0.694177 0.819306 -0.742457 0.318678 0.474907 -8.409786 -16.706757 -12.203306 -8.179502 9.899405 -16.909018 24.274027 3.951449 -8.319312 11.575888 0.000000 0.000000 0.000000 1.888897 -1.340349 -20.053759 11.288027 -18.728402 1.867395 8.072771 4.978372 -11.687871 0.000000 0.000000 0.000000 -7.125000 0.000000 0.000000 -16.876011 41.172538 -1.645731 0.000000 0.000000 0.000000 -0.417038 2.019914 26.792046 -14.487606 -23.427470 -3.019323 -11.620257 8.587952 -10.098527 0.000000 0.000000 0.000000 7.125000 0.000000 0.000000 10.916691 19.765526 6.703443
0.412524 15.979853 -0.221647 -1.374571 -1.208935 -3.246414 0.000000 0.000000 0.000000 -17.671051 -11.053521 5.567409 0.847943 5.873132 16.416879 0.335704 5.655255 -14.482339 0.661400 -5.201395 -14.483831 0.000000 0.000000 0.000000 19.378214 12.636383 5.035631 -1.059801 -6.545388 18.375390 -0.224341 -9.115862 -16.409586 -0.694726 5.328211 -14.847078 -2.111162 0.869155 13.446278 -0.634103 0.762815 -0.719442 0.361585 0.445966 -8.353804 -16.685552 -12.077470 -7.640100 10.214538 -16.786385 23.198081 4.116021 -8.255999 11.071761 0.000000 0.000000 0.000000 1.864185 -1.309705 -20.152440 11.358362 -18.835527 1.890021 8.321149 4.822633 -11.626361 0.000000 0.000000 0.000000 -7.125000 0.000000 0.000000 -16.646285 41.135734 -1.637482 0.000000 0.000000 0.000000 -0.540663 1.883225 26.960571 -14.516461 -23.468189 -3.030760 -11.706524 8.376236 -10.098273 0.000000 0.000000 0.000000 7.125000 0.000000 0.000000 10.855924 19.761655 6.665747
0.413782 15.980939 -0.223679 -1.366807 -1.169893 -3.240230 0.000000 0.000000 0.000000 -17.679089 -11.066259 5.530626 0.848897 5.876330 16.425952 0.332519 5.664591 -14.445412 0.645944 -5.141226 -14.311838 0.000000 0.000000 0.000000 19.369260 12.621958 5.059074 -1.050336 -6.517009 18.291988 -0.209567 -9.235518 -16.349535 -0.727443 5.449594 -15.195392 -2.068597 0.852425 13.478106 -0.655492 0.745074 -0.691367 0.318245 0.434770 -8.340185 -16.766897 -12.048852 -6.703632 10.797243 -16.859590 21.589977 4.376369 -8.285172 10.375439 0.000000 0.000000 0.000000 1.936926 -1.355904 -19.991503 11.424059 -18.935392 1.911278 8.178497 4.504521 -11.255570 0.000000 0.000000 0.000000 -7.125000 0.000000 0.000000 -16.665711 40.765136 -1.797007 0.000000 0.000000 0.000000 -0.560801 1.807347 27.013285 -14.607735 -23.596773 -3.067178 -11.805446 8.291294 -9.955055 0.000000 0.000000 0.000000 7.125000 0.000000 0.000000 10.792307 19.900575 6.591084
0.414306 15.981811 -0.226640 -1.331997 -1.172814 -3.210883 0.000000 0.000000 0.000000 -17.715243 -11.054564 5.501095 0.846540 5.868436 16.403097 0.330506 5.672146 -14.423912 0.669240 -5.231352 -14.569594 0.000000 0.000000 0.000000 19.313617 12.627436 5.010987 -1.053047 -6.525140 18.315855 -0.213968 -9.175971 -16.340225 -0.721145 5.426490 -15.128951 -2.074291 0.845638 13.478549 -0.681380 0.733545 -0.657126 0.296625 0.428367 -8.302842 -16.781237 -12.076545 -5.783582 11.255196 -16.962833 19.829080 4.574937 -8.337975 9.635393 0.000000 0.000000 0.000000 2.034273 -1.405686 -20.068138 11.454377 -18.981421 1.921153 8.223063 4.433567 -11.149916 0.000000 0.000000 0.000000 -7.125000 0.000000 0.000000 -16.598835 40.666961 -1.830866 0.000000 0.000000 0.000000 -0.646776 1.644340 27.262096 -14.656138 -23.664936 -3.086587 -11.955711 7.925806 -9.941960 0.000000 0.000000 0.000000 7.125000 0.000000 0.000000 10.686652 19.906845 6.522645
0.412698 15.982751 -0.231654 -1.374567 -1.163228 -3.224960 0.000000 0.000000 0.000000 -17.642425 -11.023477 5.446724 0.852100 5.887148 16.457295 0.334674 5.573173 -14.397556 0.645148 -5.138235 -14.303252 0.000000 0.000000 0.000000 19.385385 12.690224 5.077525 -1.043094 -6.495231 18.228244 -0.201219 -9.289540 -16.300548 -0.714978 5.403292 -15.062518 -2.035820 0.834086 13.529841 -0.644867 0.727731 -0.545206 0.315551 0.423545 -8.210787 -16.974292 -12.108945 -4.935924 12.043151 -17.098048 18.010561 4.904188 -8.394048 8.964125 0.000000 0.000000 0.000000 2.045761 -1.580249 -20.178327 11.479968 -19.020232 1.929453 8.251949 4.193783 -11.116650 0.000000 0.000000 0.000000 -7.125000 0.000000 0.000000 -16.565225 40.637485 -1.839444 0.000000 0.000000 0.000000 -0.703139 1.674832 27.363783 -14.945428 -24.070056 -3.203685 -11.987805 7.811256 -9.904172 0.000000 0.000000 0.000000 7.125000 0.000000 0.000000 10.665602 19.943185 6.500518
0.411725 15.982854 -0.235646 -1.463012 -1.211251 -3.210172 0.000000 0.000000 0.000000 -17.534601 -11.042013 5.410648 0.854592 5.895671 16.482112 0.334829 5.614096 -14.434370 0.639455 -5.115886 -14.239504 0.000000 0.000000 0.000000 19.512286 12.809820 5.135729 -1.033988 -6.467571 18.147393 -0.185080 -9.392504 -16.202047 -0.714832 5.402994 -15.061558 -1.927319 0.857949 13.650827 -0.605049 0.777202 -0.534215 0.285132 0.443937 -8.267731 -17.002791 -12.186462 -4.519858 12.404111 -17.222756 16.888527 5.037634 -8.450132 8.564875 0.000000 0.000000 0.000000 2.110356 -1.530322 -20.598561 11.529846 -19.095918 1.945713 8.273189 3.938130 -11.134963 0.000000 0.000000 0.000000 -7.125000 0.000000 0.000000 -16.552074 40.656942 -1.829616 0.000000 0.000000 0.000000 -0.722994 1.583649 27.285334 -14.808130 -23.878123 -3.147892 -11.999939 7.854463 -10.104143 0.000000 0.000000 0.000000 7.125000 0.000000 0.000000 10.648675 19.742011 6.538672
